# xmcd
#
# Track frame offsets: 
#        150
#        17070
#        37901
#        52230
#        75387
#        91578
#        113450
#        132892
#        153877
#        172530
#
# Disc length: 2647 seconds
#
# Revision: 0
# Processed by: cddbd v1.5.2PL0 Copyright (c) Steve Scherf et al.
# Submitted via: ExactAudioCopy v0.99pb4
#
DISCID=5e0a550a
DTITLE=Tommy Ludgate - Wall Of Words
DYEAR=2008
DGENRE=Soul
TTITLE0=Nothing To Say
TTITLE1=Pain
TTITLE2=Sweet Release
TTITLE3=Wall Of Words
TTITLE4=Make Me Rich
TTITLE5=So Cruel
TTITLE6=Sweet Don't Taste
TTITLE7=Temporary Lover
TTITLE8=Took It For Granted
TTITLE9=Don't Breathe In Dirt
EXTD=
EXTT0=
EXTT1=
EXTT2=
EXTT3=
EXTT4=
EXTT5=
EXTT6=
EXTT7=
EXTT8=
EXTT9=
PLAYORDER=
